<?xml version="1.0" encoding="UTF-8"?>
<svg width="60px" height="60px" viewBox="0 0 60 60" version="1.1" xmlns="http://www.w3.org/2000/svg" xmlns:xlink="http://www.w3.org/1999/xlink">
    <!-- Generator: Sketch 53.2 (72643) - https://sketchapp.com -->
    <title>Cjdowner-Cryptocurrency-Flat-Canada-eCoin-CDN</title>
    <desc>Created with Sketch.</desc>
    <g id="Page-1" stroke="none" stroke-width="1" fill="none" fill-rule="evenodd">
        <g id="Cjdowner-Cryptocurrency-Flat-Canada-eCoin-CDN" fill-rule="nonzero">
            <circle id="Oval" fill="#F70808" cx="30" cy="30" r="30"></circle>
            <path d="M30,11.25 L26.8875,16.905 C26.535,17.52 25.903125,17.46375 25.269375,17.120625 L23.019375,15.9825 L24.695625,24.669375 C25.05,26.2575 23.9175,26.2575 23.35875,25.569375 L19.425,21.28125 L18.7875,23.46 C18.7125,23.746875 18.39,24.046875 17.904375,23.975625 L12.935625,22.955625 L14.23875,27.583125 C14.52,28.6125 14.7375,29.038125 13.9575,29.308125 L12.185625,30.121875 L20.74125,36.894375 C21.080625,37.15125 21.25125,37.6125 21.13125,38.02875 L20.38125,40.425 C23.32875,40.093125 25.96875,39.59625 28.91625,39.28875 C29.176875,39.2625 29.611875,39.680625 29.61,39.975 L29.221875,48.75 L30.654375,48.75 L30.429375,39.99375 C30.4275,39.699375 30.823125,39.2625 31.081875,39.28875 C34.029375,39.59625 36.669375,40.095 39.615,40.425 L38.866875,38.02875 C38.754568,37.6065157 38.9086706,37.1582847 39.256875,36.894375 L47.8125,30.121875 L46.040625,29.31 C45.260625,29.038125 45.478125,28.6125 45.759375,27.583125 L47.064375,22.955625 L42.09375,23.975625 C41.608125,24.046875 41.28375,23.746875 41.2125,23.46 L40.573125,21.28125 L36.64125,25.57125 C36.0825,26.2575 34.95,26.2575 35.304375,24.67125 L36.9825,15.9825 L34.730625,17.120625 C34.096875,17.46375 33.465,17.52 33.1125,16.905 L30,11.25 Z" id="Path" fill="#FFFFFF"></path>
        </g>
    </g>
</svg>