<?xml version="1.0" encoding="UTF-8"?>
<svg width="62px" height="62px" viewBox="0 0 62 62" version="1.1" xmlns="http://www.w3.org/2000/svg" xmlns:xlink="http://www.w3.org/1999/xlink">
    <!-- Generator: Sketch 53.2 (72643) - https://sketchapp.com -->
    <title>Combined Shape</title>
    <desc>Created with Sketch.</desc>
    <defs>
        <circle id="path-1" cx="30.5" cy="30" r="30"></circle>
    </defs>
    <g id="Page-1" stroke="none" stroke-width="1" fill="none" fill-rule="evenodd">
        <g id="Combined-Shape" transform="translate(0.500000, 1.000000)">
            <mask id="mask-2" fill="white">
                <use xlink:href="#path-1"></use>
            </mask>
            <use id="Oval" stroke="#EAEAEA" fill="#FFFFFF" fill-rule="nonzero" xlink:href="#path-1"></use>
            <path d="M-4.62105263,-1 L23.1684211,-1 L23.1684211,17.522 L-4.62105263,-1 L-4.62105263,-1 Z M38.8315789,-1 L66.6210526,-1 L38.8315789,17.522 L38.8315789,-1 L38.8315789,-1 Z M78.3684211,6.812 L78.3684211,20.168 L58.4105263,20.168 L78.3684211,6.812 L78.3684211,6.812 Z M78.3684211,40.958 L78.3684211,54.314 L58.4105263,40.958 L78.3684211,40.958 L78.3684211,40.958 Z M66.6210526,62 L38.8315789,62 L38.8315789,43.478 L66.6210526,62 L66.6210526,62 Z M23.1684211,62 L-4.62105263,62 L23.1684211,43.478 L23.1684211,62 L23.1684211,62 Z M-16.3684211,54.188 L-16.3684211,40.958 L3.58947368,40.958 L-16.3684211,54.188 L-16.3684211,54.188 Z M-16.3684211,20.042 L-16.3684211,6.812 L3.58947368,20.042 L-16.3684211,20.042 L-16.3684211,20.042 Z" id="Shape" fill="#214097" mask="url(#mask-2)"></path>
            <polygon id="Path" fill="#F4F4F4" fill-rule="nonzero" mask="url(#mask-2)" points="78.3684211 54.188 58.4105263 40.958 78.3684211 40.958 78.3684211 20.042 58.4105263 20.042 78.3684211 6.812 78.3684211 -1 66.6210526 -1 38.8315789 17.522 38.8315789 -1 31 -1 23.1684211 -1 23.1684211 17.522 -4.62105263 -1 -16.3684211 -1 -16.3684211 6.812 3.58947368 20.042 -16.3684211 20.042 -16.3684211 40.958 3.58947368 40.958 -16.3684211 54.188 -16.3684211 62 -4.62105263 62 23.1684211 43.478 23.1684211 62 31 62 38.8315789 62 38.8315789 43.478 66.6210526 62 78.3684211 62"></polygon>
            <path d="M35.9263158,-1 L35.9263158,23.948 L78.3684211,23.948 L78.3684211,36.926 L35.9263158,36.926 L35.9263158,62 L31,62 L26.0736842,62 L26.0736842,37.052 L-16.3684211,37.052 L-16.3684211,23.948 L26.0736842,23.948 L26.0736842,-1 L31,-1 L35.9263158,-1 L35.9263158,-1 Z M78.3684211,59.102 L51.0842105,40.958 L42.2421053,40.958 L73.9473684,62 L78.3684211,62 L78.3684211,59.102 L78.3684211,59.102 Z M51.0842105,20.042 L78.3684211,1.898 L78.3684211,-1 L73.9473684,-1 L42.2421053,20.042 L51.0842105,20.042 L51.0842105,20.042 Z M19.7578947,20.042 L-11.9473684,-1 L-16.3684211,-1 L-16.3684211,1.898 L10.9157895,20.042 L19.7578947,20.042 L19.7578947,20.042 Z M10.9157895,40.958 L-16.3684211,59.102 L-16.3684211,62 L-11.9473684,62 L19.7578947,40.958 L10.9157895,40.958 L10.9157895,40.958 Z" id="Shape" fill="#EE2724" mask="url(#mask-2)"></path>
        </g>
    </g>
</svg>